<svg version="1.1" id="Layer_1" xmlns="http://www.w3.org/2000/svg" xmlns:xlink="http://www.w3.org/1999/xlink" x="0px" y="0px"
	 width="100%" viewBox="0 0 512 512" enable-background="new 0 0 512 512" xml:space="preserve">
<path fill="#000000" opacity="1.000000" stroke="none" 
	d="
M282.000000,513.000000 
	C188.022812,513.000000 94.545624,513.000000 1.034216,513.000000 
	C1.034216,342.397797 1.034216,171.795563 1.034216,1.096670 
	C171.560532,1.096670 342.121155,1.096670 512.840881,1.096670 
	C512.840881,171.666550 512.840881,342.333252 512.840881,513.000000 
	C436.128876,513.000000 359.314423,513.000000 282.000000,513.000000 
M508.000183,285.500000 
	C508.000183,223.737473 508.000183,161.974945 508.000183,99.438225 
	C429.854004,129.199646 352.387177,158.702332 275.356781,188.038803 
	C275.356781,295.119843 275.356781,401.462341 275.356781,508.158875 
	C289.535309,502.836334 303.312347,497.747040 317.028687,492.498993 
	C348.683472,480.387421 380.293152,468.157959 411.950500,456.053192 
	C442.406097,444.407898 472.849152,432.725220 503.435059,421.430817 
	C507.442566,419.950989 508.080597,418.151306 508.071014,414.463898 
	C507.960052,371.809479 508.000183,329.154694 508.000183,285.500000 
M18.972256,424.470398 
	C21.825850,425.607361 24.665052,426.782104 27.535336,427.875275 
	C50.071602,436.458221 72.622269,445.003357 95.151642,453.604370 
	C115.079781,461.212341 134.971527,468.915741 154.906418,476.505981 
	C174.708389,484.045593 194.541901,491.502472 214.366135,498.983521 
	C222.426193,502.025146 230.498215,505.035004 238.835083,508.160645 
	C238.918076,506.779785 238.992386,506.120087 238.992432,505.460419 
	C238.998398,400.980652 238.981964,296.500854 239.084702,192.021194 
	C239.087692,188.969360 238.002930,187.646851 235.387558,186.710953 
	C229.911697,184.751434 224.499802,182.612930 219.064148,180.541306 
	C195.313583,171.489578 171.568481,162.423477 147.812561,153.385834 
	C126.938828,145.444672 106.036255,137.579041 85.177917,129.597748 
	C65.078766,121.906967 45.036083,114.068535 24.933632,106.386452 
	C18.838818,104.057335 12.627719,102.032509 5.999797,99.703110 
	C5.999797,102.102745 5.999797,103.757263 5.999797,105.411781 
	C5.999789,208.558472 5.999786,311.705170 5.999867,414.851868 
	C5.999868,415.685028 5.749095,416.630066 6.058103,417.326385 
	C6.581903,418.506653 7.220546,420.076294 8.232215,420.518555 
	C11.479745,421.938171 14.920117,422.916687 18.972256,424.470398 
M187.948776,130.447327 
	C188.391373,130.648209 188.826065,130.869095 189.277695,131.047089 
	C207.820633,138.355255 226.364166,145.661865 244.909775,152.963211 
	C252.189484,155.829193 258.862885,157.429443 267.083435,153.803192 
	C285.600403,145.634918 304.785400,138.982498 323.690155,131.691467 
	C345.919891,123.118126 368.147522,114.539139 390.363464,105.930145 
	C410.012817,98.315765 429.644409,90.655617 449.284882,83.018311 
	C456.182037,80.336311 463.082184,77.662033 470.989288,74.592857 
	C456.421570,69.895500 443.016846,65.573227 429.612183,61.250767 
	C401.529602,52.195286 373.450867,43.127628 345.363312,34.087597 
	C318.049561,25.296627 290.718231,16.560122 263.417664,7.728491 
	C259.650543,6.509851 256.209076,5.862313 252.149750,7.273157 
	C241.596420,10.941028 230.814453,13.944395 220.177795,17.380327 
	C190.895920,26.839169 161.657669,36.433144 132.370804,45.876415 
	C114.017639,51.794224 95.590744,57.483162 77.229858,63.377342 
	C66.189186,66.921600 55.211769,70.662918 43.327251,74.607300 
	C55.268280,79.288048 66.365784,83.687729 77.500084,87.992233 
	C100.001411,96.691223 122.514885,105.358986 145.038651,113.999710 
	C159.094879,119.392052 173.179108,124.711456 187.948776,130.447327 
z"/>
<path fill="#F283A0" opacity="1.000000" stroke="none" 
	d="
M508.000183,286.000000 
	C508.000183,329.154694 507.960052,371.809479 508.071014,414.463898 
	C508.080597,418.151306 507.442566,419.950989 503.435059,421.430817 
	C472.849152,432.725220 442.406097,444.407898 411.950500,456.053192 
	C380.293152,468.157959 348.683472,480.387421 317.028687,492.498993 
	C303.312347,497.747040 289.535309,502.836334 275.356781,508.158875 
	C275.356781,401.462341 275.356781,295.119843 275.356781,188.038803 
	C352.387177,158.702332 429.854004,129.199646 508.000183,99.438225 
	C508.000183,161.974945 508.000183,223.737473 508.000183,286.000000 
z"/>
<path fill="#90E085" opacity="1.000000" stroke="none" 
	d="
M18.629169,424.267883 
	C14.920117,422.916687 11.479745,421.938171 8.232215,420.518555 
	C7.220546,420.076294 6.581903,418.506653 6.058103,417.326385 
	C5.749095,416.630066 5.999868,415.685028 5.999867,414.851868 
	C5.999786,311.705170 5.999789,208.558472 5.999797,105.411781 
	C5.999797,103.757263 5.999797,102.102745 5.999797,99.703110 
	C12.627719,102.032509 18.838818,104.057335 24.933632,106.386452 
	C45.036083,114.068535 65.078766,121.906967 85.177917,129.597748 
	C106.036255,137.579041 126.938828,145.444672 147.812561,153.385834 
	C171.568481,162.423477 195.313583,171.489578 219.064148,180.541306 
	C224.499802,182.612930 229.911697,184.751434 235.387558,186.710953 
	C238.002930,187.646851 239.087692,188.969360 239.084702,192.021194 
	C238.981964,296.500854 238.998398,400.980652 238.992432,505.460419 
	C238.992386,506.120087 238.918076,506.779785 238.835083,508.160645 
	C230.498215,505.035004 222.426193,502.025146 214.366135,498.983521 
	C194.541901,491.502472 174.708389,484.045593 154.906418,476.505981 
	C134.971527,468.915741 115.079781,461.212341 95.151642,453.604370 
	C72.622269,445.003357 50.071602,436.458221 27.535336,427.875275 
	C24.665052,426.782104 21.825850,425.607361 18.629169,424.267883 
z"/>
<path fill="#929FC5" opacity="1.000000" stroke="none" 
	d="
M187.599762,130.255463 
	C173.179108,124.711456 159.094879,119.392052 145.038651,113.999710 
	C122.514885,105.358986 100.001411,96.691223 77.500084,87.992233 
	C66.365784,83.687729 55.268280,79.288048 43.327251,74.607300 
	C55.211769,70.662918 66.189186,66.921600 77.229858,63.377342 
	C95.590744,57.483162 114.017639,51.794224 132.370804,45.876415 
	C161.657669,36.433144 190.895920,26.839169 220.177795,17.380327 
	C230.814453,13.944395 241.596420,10.941028 252.149750,7.273157 
	C256.209076,5.862313 259.650543,6.509851 263.417664,7.728491 
	C290.718231,16.560122 318.049561,25.296627 345.363312,34.087597 
	C373.450867,43.127628 401.529602,52.195286 429.612183,61.250767 
	C443.016846,65.573227 456.421570,69.895500 470.989288,74.592857 
	C463.082184,77.662033 456.182037,80.336311 449.284882,83.018311 
	C429.644409,90.655617 410.012817,98.315765 390.363464,105.930145 
	C368.147522,114.539139 345.919891,123.118126 323.690155,131.691467 
	C304.785400,138.982498 285.600403,145.634918 267.083435,153.803192 
	C258.862885,157.429443 252.189484,155.829193 244.909775,152.963211 
	C226.364166,145.661865 207.820633,138.355255 189.277695,131.047089 
	C188.826065,130.869095 188.391373,130.648209 187.599762,130.255463 
z"/>
</svg>